<?xml version="1.0" standalone="no"?>
<!DOCTYPE svg PUBLIC "-//W3C//DTD SVG 20010904//EN"
 "http://www.w3.org/TR/2001/REC-SVG-20010904/DTD/svg10.dtd">
<svg version="1.0" xmlns="http://www.w3.org/2000/svg"
 width="512.000000pt" height="512.000000pt" viewBox="0 0 512.000000 512.000000"
 preserveAspectRatio="xMidYMid meet">
<metadata>
Created by potrace 1.14, written by Peter Selinger 2001-2017
</metadata>
<g transform="translate(0.000000,512.000000) scale(0.100000,-0.100000)"
fill="#000000" stroke="none">
<path d="M0 2560 l0 -2560 2560 0 2560 0 0 2560 0 2560 -1071 0 c-1006 0
-1073 -1 -1084 -17 -13 -17 -14 -17 -32 0 -18 16 -107 17 -1476 17 l-1457 0 0
-2560z m1530 2520 c0 -5 -2 -10 -4 -10 -3 0 -8 5 -11 10 -3 6 -1 10 4 10 6 0
11 -4 11 -10z m1437 -47 c-11 -10 -27 8 -27 30 l0 21 16 -22 c9 -13 14 -26 11
-29z m-2407 -1218 c0 -8 4 -15 9 -15 5 0 13 -9 16 -21 8 -25 62 -59 83 -52 8
4 21 -2 28 -12 19 -26 18 -65 -2 -65 -8 0 -13 4 -10 8 2 4 1 14 -5 22 -6 10
-9 11 -9 3 0 -7 -7 -13 -16 -13 -8 0 -13 4 -9 9 7 12 -13 24 -40 26 -17 0 -20
-4 -17 -22 4 -19 0 -23 -22 -23 -54 0 -89 69 -51 100 8 7 15 25 15 41 0 19 5
29 15 29 8 0 15 -7 15 -15z m240 -66 c0 -7 10 -9 25 -7 24 5 25 3 25 -40 0
-26 6 -52 15 -62 14 -15 13 -19 -7 -36 -19 -17 -21 -17 -15 -1 4 9 2 17 -3 17
-6 0 -10 -7 -10 -15 0 -8 -4 -15 -9 -15 -10 0 -21 24 -21 47 0 9 -6 21 -14 27
-17 12 -24 65 -13 84 10 15 27 16 27 1z m-48 -114 c0 -5 -5 -11 -11 -13 -6 -2
-11 4 -11 13 0 9 5 15 11 13 6 -2 11 -8 11 -13z m127 -159 c-14 -12 -50 -26
-45 -18 3 6 0 12 -6 15 -7 2 2 4 21 5 18 0 31 -1 30 -2z m-62 -88 c1 -11 -4
-30 -11 -40 -13 -18 -14 -18 -20 6 -7 29 1 56 18 56 6 0 12 -10 13 -22z m2116
-51 c3 -7 -4 -19 -14 -25 -15 -10 -19 -9 -19 0 0 9 -3 8 -10 -2 -5 -8 -10 -11
-10 -6 0 12 30 46 40 46 5 0 10 -6 13 -13z m-233 -32 c7 -8 19 -15 26 -15 21
0 17 -20 -7 -41 -16 -14 -32 -17 -62 -13 -23 2 -43 7 -45 9 -5 4 60 75 69 75
4 0 12 -7 19 -15z m-132 -104 c-7 -11 -16 -21 -20 -21 -5 0 -8 -7 -8 -15 0
-19 -16 -20 -23 -1 -6 16 45 77 56 66 5 -4 3 -17 -5 -29z m-28 -192 c0 -12 4
-17 11 -13 8 4 9 -1 4 -17 -12 -39 -26 -47 -24 -14 2 17 -1 41 -5 54 -6 16 -5
21 3 17 6 -4 11 -16 11 -27z m-649 -33 c5 3 9 1 9 -5 0 -5 -7 -14 -15 -19 -14
-7 -13 -11 4 -26 11 -10 17 -24 14 -32 -8 -21 -41 -17 -48 6 -3 11 -13 20 -21
20 -8 0 -14 9 -14 20 0 11 -6 20 -12 21 -7 1 5 7 27 14 22 6 42 8 43 3 2 -4 8
-6 13 -2z m236 -88 c15 -12 13 -45 -4 -45 -7 0 -13 4 -13 8 0 4 -13 10 -30 14
-33 7 -45 19 -35 36 8 11 62 3 82 -13z m-143 -34 c25 -14 46 -30 46 -35 0 -6
-4 -7 -10 -4 -5 3 -10 2 -10 -4 0 -6 -14 -2 -32 7 -39 21 -68 44 -68 54 0 15
27 8 74 -18z m136 -33 c0 -5 -7 -14 -15 -21 -8 -7 -15 -19 -15 -26 0 -17 -16
-18 -26 -3 -4 7 1 16 10 21 9 5 16 16 16 23 0 8 7 15 15 15 8 0 15 -4 15 -9z
m740 -82 c0 -6 -4 -7 -10 -4 -5 3 -10 11 -10 16 0 6 5 7 10 4 6 -3 10 -11 10
-16z m-128 -32 c-7 -8 -9 -17 -5 -21 4 -4 1 -11 -7 -17 -11 -7 -12 -11 -3 -17
8 -5 9 -13 3 -22 -8 -13 -10 -12 -10 3 0 21 -16 22 -54 2 -38 -20 -39 -19 -10
10 14 14 33 24 42 23 13 -2 17 4 15 24 -1 20 2 25 13 21 8 -3 14 1 14 8 0 7 3
9 6 6 4 -4 2 -13 -4 -20z m38 -17 c0 -11 -4 -20 -9 -20 -5 0 -7 9 -4 20 3 11
7 20 9 20 2 0 4 -9 4 -20z m-1517 -60 c8 -11 16 -18 18 -16 2 2 2 -17 0 -42
-2 -26 -6 -40 -8 -32 -20 67 -53 103 -53 58 0 -12 -3 -19 -6 -15 -11 10 7 67
21 67 8 0 20 -9 28 -20z m77 -10 c0 -4 -9 -6 -21 -3 -15 4 -17 8 -8 14 14 8
29 3 29 -11z m1905 0 c-3 -5 -12 -10 -18 -10 -7 0 -6 4 3 10 19 12 23 12 15 0z
m-505 -36 c0 -8 -5 -12 -10 -9 -6 4 -8 11 -5 16 9 14 15 11 15 -7z m480 6 c0
-5 -8 -10 -17 -10 -15 0 -16 2 -3 10 19 12 20 12 20 0z m106 -16 c19 -9 34
-21 34 -26 0 -18 -29 -38 -57 -38 -16 0 -23 -4 -16 -8 8 -5 5 -14 -9 -31 -14
-19 -29 -25 -55 -24 -49 1 -55 11 -44 74 8 48 9 50 10 17 1 -27 6 -38 16 -38
8 0 15 5 15 10 0 6 6 10 13 9 38 -5 48 2 47 29 -4 49 -4 49 46 26z m-2109 -41
c-3 -10 -5 -4 -5 12 0 17 2 24 5 18 2 -7 2 -21 0 -30z m1523 -18 c0 -8 -4 -15
-10 -15 -5 0 -10 7 -10 15 0 8 5 15 10 15 6 0 10 -7 10 -15z m-1521 -57 c0
-29 -3 -47 -6 -40 -8 19 -44 14 -50 -7 -3 -11 -13 -21 -24 -24 -17 -5 -17 -3
4 23 12 16 32 29 45 29 18 1 22 7 22 36 0 19 2 35 5 35 3 0 5 -24 4 -52z
m1797 -81 c-6 -25 -13 -45 -16 -45 -24 2 -39 -5 -43 -19 -3 -10 -5 7 -6 38 -1
49 2 57 19 62 13 3 20 14 20 29 l1 23 18 -22 c15 -18 16 -28 7 -66z m-1189 67
c-3 -3 -12 -4 -19 -1 -8 3 -5 6 6 6 11 1 17 -2 13 -5z m1633 -10 c0 -8 -5 -12
-10 -9 -6 4 -8 11 -5 16 9 14 15 11 15 -7z m-2137 -1 c-7 -2 -21 -2 -30 0 -10
3 -4 5 12 5 17 0 24 -2 18 -5z m348 -67 c-28 -28 -51 -48 -51 -44 0 3 20 27
45 51 25 25 45 51 46 59 0 10 2 10 6 -1 3 -8 -16 -35 -46 -65z m-311 32 c0 -6
-6 -5 -15 2 -8 7 -15 14 -15 16 0 2 7 1 15 -2 8 -4 15 -11 15 -16z m90 -4 c0
-9 -5 -14 -12 -12 -18 6 -21 28 -4 28 9 0 16 -7 16 -16z m-233 -96 c-2 -18 -4
-6 -4 27 0 33 2 48 4 33 2 -15 2 -42 0 -60z m921 37 c-3 -3 -9 2 -12 12 -6 14
-5 15 5 6 7 -7 10 -15 7 -18z m601 -131 c1 -46 -3 -63 -14 -67 -19 -8 -26 5
-14 23 5 8 9 53 10 100 1 72 3 79 10 45 4 -22 8 -68 8 -101z m-860 99 c-45
-50 -72 -73 -85 -73 -8 0 -14 -6 -14 -14 0 -19 -58 -76 -77 -76 -10 0 -4 10
16 27 17 15 31 33 31 40 0 7 12 19 28 27 15 8 44 32 65 55 21 23 43 41 49 41
6 0 1 -12 -13 -27z m675 -77 c0 -52 -2 -92 -6 -89 -5 2 -8 47 -8 100 0 53 3
94 6 90 4 -3 7 -49 8 -101z m-504 84 c0 -5 -4 -10 -10 -10 -5 0 -10 5 -10 10
0 6 5 10 10 10 6 0 10 -4 10 -10z m95 -36 c4 -29 3 -50 -4 -57 -7 -7 -7 -14 0
-23 7 -9 7 -19 -1 -33 -15 -29 -32 -27 -21 2 5 12 8 52 7 90 -1 77 9 88 19 21z
m365 30 c0 -8 -4 -12 -10 -9 -5 3 -10 10 -10 16 0 5 5 9 10 9 6 0 10 -7 10
-16z m140 -5 c0 -5 -4 -9 -10 -9 -5 0 -10 7 -10 16 0 8 5 12 10 9 6 -3 10 -10
10 -16z m-403 -21 c-3 -8 -6 -5 -6 6 -1 11 2 17 5 13 3 -3 4 -12 1 -19z m180
-40 c-3 -7 -5 -2 -5 12 0 14 2 19 5 13 2 -7 2 -19 0 -25z m-1210 -70 c-2 -18
-4 -4 -4 32 0 36 2 50 4 33 2 -18 2 -48 0 -65z m1033 65 c0 -21 -3 -24 -9 -14
-5 8 -7 20 -4 28 8 21 13 15 13 -14z m-560 -3 c0 -5 -4 -10 -9 -10 -6 0 -13 5
-16 10 -3 6 1 10 9 10 9 0 16 -4 16 -10z m1087 -52 c-3 -8 -6 -5 -6 6 -1 11 2
17 5 13 3 -3 4 -12 1 -19z m-824 -22 c4 -10 1 -13 -8 -9 -8 3 -12 9 -9 14 7
12 11 11 17 -5z m-1224 -19 c6 -8 8 -16 5 -20 -11 -11 7 -45 26 -50 16 -4 20
-12 18 -40 -2 -19 -6 -33 -9 -31 -3 2 -12 -8 -19 -21 -7 -14 -17 -25 -22 -25
-13 0 -9 -28 5 -33 6 -3 3 -5 -8 -5 -11 0 -31 -4 -45 -8 l-25 -8 28 26 c16 15
27 32 26 40 -1 7 1 21 5 30 5 10 1 38 -8 65 -9 25 -14 48 -11 51 2 3 0 13 -6
23 -8 16 -6 19 9 19 11 0 25 -6 31 -13z m1815 -62 c-4 -8 -1 -15 6 -15 7 0 10
-8 7 -19 -5 -20 27 -60 39 -48 9 8 7 73 -2 88 -4 8 -3 10 4 5 7 -4 12 -14 12
-22 0 -17 17 -19 23 -1 3 9 9 7 23 -5 18 -18 27 -58 12 -58 -4 0 -8 -20 -8
-44 0 -40 2 -44 33 -53 25 -7 31 -14 29 -30 -2 -12 8 -32 23 -47 25 -25 34
-70 15 -81 -5 -3 -10 -19 -10 -34 0 -18 -5 -28 -15 -28 -8 0 -15 4 -15 9 0 4
-7 8 -15 8 -8 0 -15 9 -15 20 0 11 -4 20 -9 20 -10 0 -27 39 -23 53 1 5 -2 6
-7 2 -6 -3 -8 -12 -4 -20 7 -20 -3 -19 -26 3 -11 9 -27 23 -36 31 -12 9 -15
22 -11 42 4 20 1 31 -11 38 -15 8 -15 12 -4 25 8 9 12 18 10 19 -2 1 -18 12
-36 25 -34 23 -48 28 -38 13 3 -5 1 -12 -5 -16 -5 -3 -10 0 -10 8 0 8 -7 20
-15 27 -20 16 -19 40 1 40 12 0 14 3 6 13 -7 8 -6 16 3 24 11 10 15 10 19 0 3
-8 8 -7 16 6 14 21 42 23 34 2z m-145 -80 c14 -11 30 -20 36 -21 40 -4 40 -4
21 -19 -11 -8 -28 -15 -39 -15 -10 0 -43 -12 -73 -26 -30 -14 -66 -27 -79 -28
-27 -4 -53 9 -42 21 5 4 13 1 18 -7 8 -11 9 -7 5 15 -5 20 -3 25 3 16 13 -20
30 -5 23 22 -5 20 -4 21 14 7 10 -8 22 -19 26 -25 10 -13 43 20 43 43 0 11 7
16 20 15 16 -2 15 0 -5 9 -35 17 -36 18 -20 28 10 6 16 5 19 -3 2 -6 16 -21
30 -32z m36 6 c3 -5 1 -12 -5 -16 -5 -3 -10 1 -10 9 0 18 6 21 15 7z m-375
-40 c0 -6 -4 -13 -10 -16 -5 -3 -10 1 -10 9 0 9 5 16 10 16 6 0 10 -4 10 -9z
m2300 -31 c0 -5 -4 -10 -10 -10 -5 0 -10 5 -10 10 0 6 5 10 10 10 6 0 10 -4
10 -10z m-1552 -94 c3 -15 1 -16 -17 -6 -12 6 -19 16 -15 21 9 15 28 5 32 -15z
m-2393 -16 c-4 -6 -11 -8 -16 -5 -5 4 -9 1 -9 -5 0 -6 -4 -8 -10 -5 -19 11
-10 25 16 25 14 0 23 -4 19 -10z m2485 -121 c0 -25 -12 -30 -26 -11 -11 17
-18 60 -14 92 2 18 39 -58 40 -81z m-2490 51 c11 -11 31 -20 44 -20 25 0 39
-19 28 -36 -11 -16 -53 -14 -59 2 -3 8 -10 14 -15 14 -14 0 -47 -42 -48 -60 0
-9 -7 -25 -15 -36 -8 -12 -11 -24 -7 -28 3 -4 -1 -4 -10 -1 -26 10 -37 -44
-13 -61 10 -7 23 -11 28 -7 6 3 3 -4 -6 -16 -16 -25 -12 -56 6 -44 6 4 2 -8
-9 -27 -27 -47 -45 -56 -80 -38 -17 8 -28 20 -26 30 1 9 -4 18 -13 22 -23 9
-18 26 8 23 18 -2 22 3 20 23 -3 40 6 70 22 70 8 0 15 8 15 19 0 10 6 24 14
30 8 7 12 21 9 32 -4 13 2 27 17 41 14 13 20 28 17 40 -5 16 -2 19 14 15 10
-3 17 -1 13 4 -6 11 4 29 17 29 5 0 18 -9 29 -20z m1546 2 c1 -7 0 -8 -3 -2
-7 16 -23 12 -23 -6 0 -18 -32 -15 -36 4 -1 7 0 8 3 2 7 -16 23 -12 23 6 0 18
32 15 36 -4z m-146 -2 c0 -5 -7 -10 -16 -10 -8 0 -12 5 -9 10 3 6 10 10 16 10
5 0 9 -4 9 -10z m1110 -85 c0 -8 -4 -15 -10 -15 -5 0 -10 7 -10 15 0 8 5 15
10 15 6 0 10 -7 10 -15z"/>
<path d="M2625 1870 c-3 -5 1 -10 10 -10 9 0 13 5 10 10 -3 6 -8 10 -10 10 -2
0 -7 -4 -10 -10z"/>
</g>
</svg>
